<svg width="133" height="106" viewBox="0 0 133 106" fill="none" xmlns="http://www.w3.org/2000/svg">
<path fill-rule="evenodd" clip-rule="evenodd" d="M95.3145 0.104251L95.8693 0C96.8403 0 97.6032 0.764506 97.6032 1.73751V54.28C97.6032 55.0793 97.0831 55.7048 96.3548 55.9479L76.798 62.5505L55.9926 55.2529L37.4761 62.4462L36.9212 62.5505C35.9502 62.5505 35.1874 61.786 35.1874 60.8129V8.27056C35.1874 7.4713 35.7075 6.8458 36.4357 6.60256L55.9926 0L76.798 7.29757L95.3145 0.104251ZM73.3303 13.4484L59.4602 8.58331V49.1021L73.3303 53.9672V13.4484ZM42.1225 12.0236L52.5252 8.51384V49.1716L42.1225 53.2028V12.0236ZM80.2654 54.0367L90.6681 50.527V9.38258L80.2654 13.4136V54.0367Z" fill="#212C1C"/>
<path d="M20.8108 93.8258H15.6534L7.02743 80.738V93.8258H1.86996V72.6073H7.02743L15.6534 85.7555V72.6073H20.8108V93.8258ZM29.7068 76.7482V81.0403H36.6135V85.0301H29.7068V89.6848H37.5184V93.8258H24.5493V72.6073H37.5184V76.7482H29.7068ZM70.0018 72.6073L64.4826 93.8258H58.2393L54.8614 79.8615L51.3627 93.8258H45.1195L39.7509 72.6073H45.2703L48.3165 88.0526L52.0866 72.6073H57.7568L61.376 88.0526L64.4524 72.6073H70.0018ZM80.2493 94.0373C78.701 94.0373 77.3136 93.7854 76.0871 93.2817C74.8606 92.7779 73.8753 92.0324 73.1314 91.045C72.4075 90.0576 72.0255 88.8687 71.9853 87.4783H77.4745C77.5549 88.2642 77.8264 88.8687 78.2888 89.2919C78.7513 89.6949 79.3545 89.8964 80.0985 89.8964C80.8625 89.8964 81.4657 89.7251 81.9081 89.3826C82.3505 89.0199 82.5716 88.5262 82.5716 87.9015C82.5716 87.3776 82.3907 86.9444 82.0287 86.6018C81.6869 86.2592 81.2546 85.9771 80.7318 85.7555C80.2292 85.5338 79.5053 85.2819 78.5603 84.9998C77.193 84.5767 76.077 84.1535 75.2124 83.7304C74.3478 83.3072 73.6039 82.6825 72.9806 81.8564C72.3572 81.0302 72.0456 79.9521 72.0456 78.6222C72.0456 76.6474 72.7594 75.1059 74.187 73.9977C75.6146 72.8692 77.4745 72.305 79.7667 72.305C82.0991 72.305 83.9791 72.8692 85.4067 73.9977C86.8343 75.1059 87.5984 76.6575 87.6989 78.6524H82.1192C82.079 77.9673 81.8277 77.4333 81.3652 77.0505C80.9027 76.6474 80.3096 76.4459 79.5857 76.4459C78.9624 76.4459 78.4597 76.6172 78.0777 76.9598C77.6957 77.2822 77.5046 77.7557 77.5046 78.3804C77.5046 79.0655 77.8264 79.5995 78.4698 79.9824C79.1132 80.3652 80.1186 80.7783 81.4859 81.2216C82.8531 81.6851 83.959 82.1284 84.8035 82.5515C85.6681 82.9747 86.4121 83.5893 87.0354 84.3953C87.6587 85.2013 87.9704 86.2391 87.9704 87.5086C87.9704 88.7176 87.6587 89.8158 87.0354 90.8032C86.4322 91.7906 85.5475 92.5764 84.3813 93.1608C83.2151 93.7451 81.8377 94.0373 80.2493 94.0373Z" fill="#212C1C"/>
<path d="M98.6437 93.8257L93.2349 87.5589V93.8257H90.9427V79.8211H93.2349V86.2088L98.6638 79.8211H101.539L95.4668 86.8335L101.64 93.8257H98.6437ZM105.959 79.8211V93.8257H103.667V79.8211H105.959ZM117.997 79.8211V81.6951H114.277V93.8257H111.985V81.6951H108.245V79.8211H117.997ZM128.743 90.9644H122.892L121.886 93.8257H119.493L124.5 79.801H127.154L132.161 93.8257H129.748L128.743 90.9644ZM128.099 89.0904L125.827 82.5818L123.535 89.0904H128.099Z" fill="#212C1C"/>
</svg>
